<?xml version="1.0" ?><!DOCTYPE svg  PUBLIC '-//W3C//DTD SVG 1.1//EN'  'http://www.w3.org/Graphics/SVG/1.1/DTD/svg11.dtd'><svg enable-background="new 0 0 50 50" id="Icons" version="1.1" viewBox="0 0 50 50" xml:space="preserve" xmlns="http://www.w3.org/2000/svg" xmlns:xlink="http://www.w3.org/1999/xlink"><path d="  M14,37h30 M14,25h30 M14,13h30 M7,38c0.552,0,1-0.448,1-1s-0.448-1-1-1s-1,0.448-1,1S6.448,38,7,38z M7,26c0.552,0,1-0.448,1-1  s-0.448-1-1-1s-1,0.448-1,1S6.448,26,7,26z M7,14c0.552,0,1-0.448,1-1c0-0.552-0.448-1-1-1s-1,0.448-1,1C6,13.552,6.448,14,7,14z" fill="none" id="Up_next" stroke="#171616" stroke-linecap="round" stroke-linejoin="round" stroke-miterlimit="10" stroke-width="2"/></svg>